<?xml version="1.0" encoding="utf-8"?>
<!-- Generator: Adobe Illustrator 16.0.0, SVG Export Plug-In . SVG Version: 6.00 Build 0)  -->
<!DOCTYPE svg PUBLIC "-//W3C//DTD SVG 1.1//EN" "http://www.w3.org/Graphics/SVG/1.1/DTD/svg11.dtd">
<svg version="1.1"
	 id="svg3025" xmlns:dc="http://purl.org/dc/elements/1.1/" xmlns:cc="http://creativecommons.org/ns#" xmlns:rdf="http://www.w3.org/1999/02/22-rdf-syntax-ns#" xmlns:svg="http://www.w3.org/2000/svg" xmlns:sodipodi="http://sodipodi.sourceforge.net/DTD/sodipodi-0.dtd" xmlns:inkscape="http://www.inkscape.org/namespaces/inkscape" sodipodi:docname="spinner_font_awesome.svg" inkscape:version="0.48.3.1 r9886"
	 xmlns="http://www.w3.org/2000/svg" xmlns:xlink="http://www.w3.org/1999/xlink" x="0px" y="0px" width="128px" height="128px"
	 viewBox="536 536 128 128" enable-background="new 536 536 128 128" xml:space="preserve">
<sodipodi:namedview  inkscape:cy="896" inkscape:cx="896" inkscape:zoom="0.13169643" showgrid="false" guidetolerance="10" gridtolerance="10" objecttolerance="10" bordercolor="#666666" pagecolor="#ffffff" borderopacity="1" id="namedview3031" inkscape:current-layer="svg3025" inkscape:window-maximized="0" inkscape:window-y="25" inkscape:window-x="0" inkscape:window-height="480" inkscape:window-width="640" inkscape:pageopacity="0" inkscape:pageshadow="2">
	</sodipodi:namedview>
<g id="g3027" transform="matrix(1,0,0,-1,121.49153,1315.7966)">
	<path id="path3029" inkscape:connector-curvature="0" d="M456.749,677.397c0-3.2-1.133-5.921-3.4-8.16
		c-2.266-2.24-4.973-3.36-8.119-3.36c-3.2,0-5.921,1.12-8.16,3.36c-2.24,2.239-3.36,4.96-3.36,8.16c0,3.199,1.12,5.92,3.36,8.159
		c2.239,2.24,4.96,3.36,8.16,3.36c3.146,0,5.854-1.12,8.119-3.36C455.616,683.317,456.749,680.596,456.749,677.397z
		 M491.308,662.037c0-2.826-1-5.239-3-7.24c-2-2-4.413-3-7.239-3c-2.827,0-5.24,1-7.24,3c-2,2.001-3,4.414-3,7.24s1,5.239,3,7.24
		c2,2,4.413,3,7.24,3c2.826,0,5.239-1,7.239-3C490.308,667.276,491.308,664.863,491.308,662.037z M442.669,713.236
		c0-3.52-1.253-6.532-3.76-9.039c-2.506-2.507-5.52-3.761-9.04-3.761c-3.52,0-6.533,1.254-9.04,3.761
		c-2.506,2.507-3.76,5.52-3.76,9.039c0,3.521,1.254,6.534,3.76,9.041c2.507,2.507,5.521,3.76,9.04,3.76
		c3.521,0,6.534-1.253,9.04-3.76C441.416,719.77,442.669,716.757,442.669,713.236z M525.868,677.397c0-2.454-0.879-4.561-2.64-6.32
		c-1.76-1.761-3.866-2.64-6.32-2.64c-2.453,0-4.56,0.879-6.319,2.64c-1.761,1.76-2.64,3.866-2.64,6.32
		c0,2.453,0.879,4.56,2.64,6.319c1.76,1.761,3.866,2.64,6.319,2.64c2.454,0,4.561-0.879,6.32-2.64
		C524.989,681.957,525.868,679.85,525.868,677.397z M459.309,749.077c0-3.894-1.374-7.214-4.12-9.96
		c-2.747-2.747-6.067-4.121-9.96-4.121c-3.894,0-7.214,1.374-9.96,4.121c-2.747,2.746-4.12,6.066-4.12,9.96
		c0,3.893,1.373,7.213,4.12,9.96c2.746,2.746,6.066,4.119,9.96,4.119c3.893,0,7.213-1.374,9.96-4.119
		C457.935,756.29,459.309,752.97,459.309,749.077z M496.428,764.437c0-4.267-1.493-7.894-4.479-10.881
		c-2.987-2.986-6.613-4.479-10.88-4.479s-7.894,1.493-10.88,4.479c-2.987,2.987-4.48,6.614-4.48,10.881s1.493,7.893,4.48,10.879
		c2.986,2.987,6.613,4.48,10.88,4.48s7.893-1.494,10.88-4.48C494.935,772.329,496.428,768.703,496.428,764.437z M539.948,713.236
		c0-2.133-0.746-3.945-2.239-5.439c-1.493-1.493-3.307-2.24-5.44-2.24s-3.947,0.747-5.44,2.24c-1.493,1.494-2.239,3.307-2.239,5.439
		c0,2.134,0.746,3.947,2.239,5.44c1.493,1.494,3.307,2.24,5.44,2.24s3.947-0.746,5.44-2.24
		C539.202,717.183,539.948,715.37,539.948,713.236z M523.308,749.077c0-1.761-0.627-3.267-1.88-4.521
		c-1.254-1.253-2.761-1.88-4.521-1.88s-3.266,0.626-4.52,1.88c-1.253,1.253-1.88,2.76-1.88,4.521c0,1.76,0.627,3.266,1.88,4.52
		c1.254,1.253,2.76,1.88,4.52,1.88s3.267-0.626,4.521-1.88C522.681,752.343,523.308,750.837,523.308,749.077z"/>
</g>
</svg>
